<svg xmlns="http://www.w3.org/2000/svg" xmlns:xlink="http://www.w3.org/1999/xlink" width="200" height="70" viewBox="0 0 200 70">
  <defs>
    <clipPath id="clip-Artboard_152">
      <rect width="200" height="70"/>
    </clipPath>
  </defs>
  <g id="Artboard_152" data-name="Artboard – 152" clip-path="url(#clip-Artboard_152)">
    <g id="Group_29" data-name="Group 29" transform="translate(3 0)">
      <text id="Aiid_vercel" data-name="Aiid vercel" transform="translate(47.745 43)" fill="#1e1e1e" font-size="25" font-family="Comfortaa" font-weight="700"><tspan x="0" y="0">aiid vercel</tspan></text>
      <g id="infinite-outline" transform="translate(10.857 19.062)">
        <g id="Path_3" data-name="Path 3" transform="translate(11.844 1.711)" fill="none" stroke-linecap="round" stroke-linejoin="bevel" stroke-miterlimit="10">
          <path d="M3.806,14.078s.313.78.852,1.964,1.3,2.773,2.208,4.39A29.806,29.806,0,0,0,9.914,25a6.689,6.689,0,0,0,3.38,2.477,2.3,2.3,0,0,0,2.026-.526,4.786,4.786,0,0,0,1.315-2.273A13.162,13.162,0,0,0,17.119,21a24.407,24.407,0,0,0-.465-4.714,29.858,29.858,0,0,0-1.373-4.878A24.506,24.506,0,0,0,13.3,7.3a13.373,13.373,0,0,0-2.318-2.916A4.735,4.735,0,0,0,8.6,3.087a2.263,2.263,0,0,0-1.465.265A3.637,3.637,0,0,0,5.959,4.469a8.094,8.094,0,0,0-.9,1.741,15.112,15.112,0,0,0-.631,2.138" stroke="none"/>
          <path d="M 8.231607437133789 1.188590049743652 C 9.125706672668457 1.317714214324951 10.05772113800049 1.839468598365784 10.97729778289795 2.673555612564087 C 11.89955139160156 3.510067939758301 12.80851554870605 4.660029888153076 13.65310668945312 6.041349411010742 C 14.49934768676758 7.425367832183838 15.28004741668701 9.040158271789551 15.94373893737793 10.80192470550537 C 16.60792922973633 12.5650110244751 17.15406227111816 14.47297286987305 17.53079032897949 16.44063186645508 C 17.90725898742676 18.40694236755371 18.07892036437988 20.24677848815918 18.06728553771973 21.88815879821777 C 18.05567359924316 23.52635955810547 17.86148643493652 24.96510887145996 17.5066967010498 26.13430976867676 C 17.15291213989258 27.30019378662109 16.63969612121582 28.19720649719238 15.98900508880615 28.75701141357422 C 15.34051895141602 29.3149242401123 14.55573844909668 29.53769874572754 13.65623760223389 29.35835838317871 C 13.36135005950928 29.29956245422363 13.05897617340088 29.19582557678223 12.74968338012695 29.04763603210449 C 12.44074630737305 28.89962005615234 12.12489223480225 28.70724105834961 11.8026876449585 28.47098731994629 C 11.4808349609375 28.2349910736084 11.15263366699219 27.95520782470703 10.81863975524902 27.63210487365723 C 10.48499488830566 27.30933570861816 10.14555358886719 26.94332504272461 9.800870895385742 26.53453063964844 C 9.534564971923828 26.21869277954102 9.26508903503418 25.87724876403809 8.992924690246582 25.51093482971191 C 8.720959663391113 25.14489555358887 8.446301460266113 24.75401496887207 8.169425964355469 24.33903503417969 C 7.892745494842529 23.92434692382812 7.613843441009521 23.48558044433594 7.333196640014648 23.02346992492676 C 7.052733898162842 22.5616626739502 6.770519256591797 22.0765266418457 6.487026214599609 21.56879043579102 C 6.012899398803711 20.71962928771973 5.575306415557861 19.87917327880859 5.184805870056152 19.09414863586426 C 4.794599056243896 18.30970764160156 4.451305866241455 17.58040046691895 4.16551399230957 16.95291328430176 C 3.879862785339355 16.32573127746582 3.651582717895508 15.80010986328125 3.49129843711853 15.42276477813721 C 3.331050872802734 15.04550933837891 3.238727569580078 14.81636905670166 3.224992990493774 14.78213882446289 C 3.129306554794312 14.54367160797119 3.054384231567383 14.29684066772461 3.000818729400635 14.05464172363281 C 2.947250604629517 13.81243133544922 2.915032386779785 13.57481002807617 2.904773950576782 13.35478687286377 C 2.894511938095093 13.13471794128418 2.906216621398926 12.93222427368164 2.940507650375366 12.76033878326416 C 2.974810361862183 12.58839225769043 3.031717777252197 12.44705581665039 3.111860513687134 12.34939289093018 C 3.135153532028198 12.32100391387939 3.159774541854858 12.29708766937256 3.185551404953003 12.27750778198242 C 3.211331129074097 12.25792407989502 3.238269805908203 12.24267864227295 3.266194343566895 12.23163986206055 C 3.294122695922852 12.22059726715088 3.32304048538208 12.21376514434814 3.352776288986206 12.21100330352783 C 3.382516860961914 12.20824337005615 3.413074731826782 12.20955848693848 3.444283246994019 12.21481513977051 C 3.520480632781982 12.22764778137207 3.600560665130615 12.26396179199219 3.682083129882812 12.32181453704834 C 3.763629913330078 12.37968349456787 3.846615552902222 12.45909976959229 3.928595542907715 12.5581169128418 C 4.010595321655273 12.65715885162354 4.0915846824646 12.77580261230469 4.169114112854004 12.9120979309082 C 4.24665641784668 13.04841709136963 4.32073450088501 13.20238018035889 4.388894557952881 13.37202739715576 C 4.398099422454834 13.39476203918457 4.479496955871582 13.59506034851074 4.622362613677979 13.92888164520264 C 4.765257358551025 14.26277828216553 4.969675540924072 14.73032474517822 5.22492790222168 15.28754615783691 C 5.480290412902832 15.84501361846924 5.786588191986084 16.49235534667969 6.133151531219482 17.18560600280762 C 6.479946136474609 17.87932395935059 6.867144107818604 18.61917304992676 7.284089088439941 19.36114692687988 C 7.524465084075928 19.78890800476074 7.762866497039795 20.19649124145508 7.998894691467285 20.58329010009766 C 8.235052108764648 20.97029685974121 8.468841552734375 21.33650970458984 8.699859619140625 21.68130874633789 C 8.931011199951172 22.02630424499512 9.159396171569824 22.34987640380859 9.384610176086426 22.65140342712402 C 9.609960556030273 22.95311164855957 9.83214282989502 23.23275566101074 10.05075073242188 23.48971366882324 C 10.31219387054443 23.79701995849609 10.56878471374512 24.07181358337402 10.82010269165039 24.31375694274902 C 11.07161712646484 24.5558910369873 11.3178596496582 24.7651252746582 11.55840873718262 24.94112396240234 C 11.79915428161621 25.11726760864258 12.03420162200928 25.26011848449707 12.26312923431396 25.36933708190918 C 12.4922513961792 25.4786491394043 12.71524906158447 25.55426979064941 12.9316930770874 25.59584999084473 C 13.59332466125488 25.72295570373535 14.1702299118042 25.5557746887207 14.64667415618896 25.14388847351074 C 15.12430763244629 24.7309684753418 15.50083827972412 24.07223701477051 15.76032543182373 23.2180061340332 C 16.02035331726074 22.36199378967285 16.16270637512207 21.31012344360352 16.17143440246582 20.11366081237793 C 16.18017578125 18.91549682617188 16.05490684509277 17.57328033447266 15.77993202209473 16.13927841186523 C 15.50481605529785 14.70455741882324 15.10579299926758 13.31326961517334 14.62028694152832 12.02717018127441 C 14.13505077362061 10.74178409576416 13.56389999389648 9.562714576721191 12.94432544708252 8.550980567932129 C 12.32563781738281 7.540696620941162 11.65915775299072 6.698071956634521 10.98217391967773 6.083211421966553 C 10.30663776397705 5.469664096832275 9.621060371398926 5.083288192749023 8.962339401245117 4.983234882354736 C 8.747919082641602 4.950665950775146 8.539167404174805 4.951592445373535 8.336416244506836 4.985795497894287 C 8.133847236633301 5.019964218139648 7.93727445602417 5.08735466003418 7.747023582458496 5.187728404998779 C 7.556949615478516 5.288013458251953 7.373192310333252 5.421228885650635 7.196077823638916 5.587148189544678 C 7.019131183624268 5.752910137176514 6.848817348480225 5.951315879821777 6.685461044311523 6.18213415145874 C 6.541243076324463 6.385916709899902 6.403065204620361 6.614968776702881 6.271735668182373 6.867202281951904 C 6.140517234802246 7.11922025680542 6.016136646270752 7.394378185272217 5.899391174316406 7.690588474273682 C 5.78274393081665 7.986547946929932 5.673720359802246 8.303533554077148 5.573116302490234 8.639469146728516 C 5.47259521484375 8.975126266479492 5.380477428436279 9.329712867736816 5.29755687713623 9.701163291931152 C 5.276076316833496 9.797383308410645 5.24821138381958 9.880308151245117 5.214914321899414 9.949981689453125 C 5.181624412536621 10.01963901519775 5.142904281616211 10.07605075836182 5.09970760345459 10.11926174163818 C 5.0565185546875 10.16246223449707 5.008856773376465 10.19246768951416 4.957671165466309 10.20932579040527 C 4.906496524810791 10.22617721557617 4.851797580718994 10.22988700866699 4.794528484344482 10.22049999237061 C 4.74473237991333 10.21233940124512 4.692993640899658 10.19428634643555 4.63992977142334 10.16636943817139 C 4.586879730224609 10.13845825195312 4.532505035400391 10.10068416595459 4.477427005767822 10.05308151245117 C 4.422358512878418 10.00548648834229 4.366585254669189 9.948063850402832 4.310727596282959 9.880839347839355 C 4.254880428314209 9.813626289367676 4.198945045471191 9.736614227294922 4.143540859222412 9.64982795715332 C 4.024454116821289 9.463292121887207 3.919100522994995 9.249255180358887 3.830540418624878 9.021905899047852 C 3.741990327835083 8.794583320617676 3.670213460922241 8.553913116455078 3.618277788162231 8.314075469970703 C 3.566338777542114 8.074223518371582 3.534233331680298 7.835163593292236 3.5250403881073 7.611084938049316 C 3.51584792137146 7.386955261230469 3.529573917388916 7.177777290344238 3.569314956665039 6.997755527496338 C 3.667271852493286 6.554035663604736 3.776591777801514 6.129719257354736 3.896329641342163 5.727285861968994 C 4.016184329986572 5.32445764541626 4.146481037139893 4.943537712097168 4.28626823425293 4.587032318115234 C 4.426197052001953 4.230166912078857 4.575639247894287 3.897752285003662 4.733635902404785 3.592307090759277 C 4.891797065734863 3.28654932975769 5.058530330657959 3.007817268371582 5.232875823974609 2.75863790512085 C 5.443376064300537 2.457788467407227 5.664156913757324 2.1990065574646 5.894801616668701 1.982606768608093 C 6.125730037689209 1.765937209129333 6.366543292999268 1.591755509376526 6.616815567016602 1.460370898246765 C 6.867392539978027 1.328824162483215 7.127449512481689 1.240184307098389 7.39655590057373 1.194757580757141 C 7.665984153747559 1.149279236793518 7.944478511810303 1.147121071815491 8.231607437133789 1.188590049743652 Z" stroke="none" fill="#72a2ad"/>
        </g>
        <g id="Path_4" data-name="Path 4" transform="translate(0 0)" fill="none" stroke-linecap="round" stroke-linejoin="bevel" stroke-miterlimit="10">
          <path d="M15.65,15.789s-.313-.78-.851-1.961-1.3-2.759-2.192-4.357a28.6,28.6,0,0,0-2.986-4.46A5.986,5.986,0,0,0,6.393,2.716a2.121,2.121,0,0,0-1.875.627,4.972,4.972,0,0,0-1.172,2.28,13.637,13.637,0,0,0-.386,3.565,24.728,24.728,0,0,0,.485,4.5,29.863,29.863,0,0,0,1.3,4.634A24.5,24.5,0,0,0,6.6,22.257a13.467,13.467,0,0,0,2.167,2.838,4.723,4.723,0,0,0,2.249,1.329,2.1,2.1,0,0,0,1.4-.19,3.279,3.279,0,0,0,1.13-1.03,7.494,7.494,0,0,0,.87-1.661,14.407,14.407,0,0,0,.618-2.078" stroke="none"/>
          <path d="M 6.03347110748291 0.8714196681976318 C 6.310442924499512 0.9114199280738831 6.595578670501709 0.995797872543335 6.888343334197998 1.124247670173645 C 7.181434631347656 1.252836346626282 7.482162952423096 1.42559540271759 7.789988994598389 1.642204880714417 C 8.098147392272949 1.859047651290894 8.413409233093262 2.11983060836792 8.735231399536133 2.424230098724365 C 9.057385444641113 2.728944301605225 9.386098861694336 3.077350378036499 9.720829010009766 3.469126224517822 C 9.979898452758789 3.77234411239624 10.24259281158447 4.101584911346436 10.50843811035156 4.456165790557861 C 10.77447509765625 4.811007022857666 11.04365634918213 5.191210269927979 11.315505027771 5.596090316772461 C 11.58754062652588 6.001247882843018 11.86223602294922 6.431098937988281 12.13911247253418 6.884944438934326 C 12.41616725921631 7.339091300964355 12.69539546966553 7.817249298095703 12.97631072998047 8.31871509552002 C 13.44689846038818 9.158770561218262 13.8822078704834 9.992714881896973 14.2713794708252 10.77339172363281 C 14.66084480285645 11.55465412139893 15.00399780273438 12.2823543548584 15.29000473022461 12.90929698944092 C 15.57615089416504 13.53654384613037 15.80502128601074 14.06277370452881 15.96581745147705 14.44081115722656 C 16.12665367126465 14.81894302368164 16.21934509277344 15.04871940612793 16.2331371307373 15.08305072784424 C 16.32923126220703 15.32225131988525 16.4044361114502 15.56993293762207 16.45814323425293 15.8129768371582 C 16.51184844970703 16.05600738525391 16.54404640197754 16.29436111450195 16.55414390563965 16.51494216918945 C 16.56423950195312 16.73547172546387 16.55223846435547 16.93820190429688 16.51755714416504 17.11005592346191 C 16.48288726806641 17.28185081481934 16.42555618286133 17.42277145385742 16.3449821472168 17.51977157592773 C 16.32157516479492 17.54794883728027 16.29684829711914 17.57165145874023 16.27097129821777 17.59100151062012 C 16.24509811401367 17.61035537719727 16.21807098388672 17.62535858154297 16.19006729125977 17.63615608215332 C 16.16206550598145 17.64695358276367 16.13308334350586 17.65353965759277 16.10329055786133 17.65605545043945 C 16.0735034942627 17.65857124328613 16.04290580749512 17.65701484680176 16.01166915893555 17.65152359008789 C 15.93550395965576 17.63813400268555 15.85551738739014 17.60136795043945 15.77414608001709 17.54319381713867 C 15.69279384613037 17.48503303527832 15.61005210876465 17.40547561645508 15.52834320068359 17.30647659301758 C 15.44665813446045 17.2075023651123 15.36600303649902 17.0890941619873 15.28880500793457 16.95320701599121 C 15.21161937713623 16.81734085083008 15.1378812789917 16.66399002075195 15.07001686096191 16.4951057434082 L 15.07001399993896 16.49510765075684 C 15.06704521179199 16.48773193359375 14.99016094207764 16.29755592346191 14.85044574737549 15.97001361846924 C 14.71076107025146 15.64254283905029 14.5083065032959 15.17783451080322 14.2542085647583 14.62139129638672 C 14.00022029876709 14.0651912689209 13.6946907043457 13.41746234893799 13.34877300262451 12.72371959686279 C 13.00308704376221 12.030442237854 12.61714839935303 11.29137516021729 12.20212173461914 10.55199146270752 C 11.96574878692627 10.13088130950928 11.7316370010376 9.730286598205566 11.50018692016602 9.350790023803711 C 11.26886177062988 8.971503257751465 11.04020023345947 8.613300323486328 10.81460189819336 8.276760101318359 C 10.58913135528564 7.940412998199463 10.36672306060791 7.625710964202881 10.14777278900146 7.333229064941406 C 9.928955078125 7.040922164916992 9.713594436645508 6.770815849304199 9.502086639404297 6.523478507995605 C 9.249484062194824 6.22808837890625 9.002142906188965 5.965271949768066 8.760468482971191 5.73528528213501 C 8.518982887268066 5.50547456741333 8.283159255981445 5.30845308303833 8.053402900695801 5.144470691680908 C 7.823829650878906 4.98061990737915 7.600317478179932 4.84976053237915 7.383265018463135 4.752140522003174 C 7.166391849517822 4.654601097106934 6.955971240997314 4.590245246887207 6.752401351928711 4.559323787689209 C 6.132291316986084 4.465133666992188 5.597438335418701 4.656693935394287 5.161097526550293 5.082522392272949 C 4.725809574127197 5.507324695587158 4.388433456420898 6.165391445159912 4.162059307098389 7.005957126617432 C 3.936137914657593 7.844842433929443 3.82065486907959 8.865940093994141 3.828719615936279 10.01937294006348 C 3.836774587631226 11.17124366760254 3.968047142028809 12.45596790313721 4.235878944396973 13.82458019256592 C 4.503582954406738 15.19253921508789 4.883042335510254 16.51820182800293 5.340089797973633 17.7447338104248 C 5.797379016876221 18.97191429138184 6.332761764526367 20.10098648071289 6.912124156951904 21.0744571685791 C 7.492282867431641 22.04926490783691 8.116983413696289 22.86878204345703 8.751937866210938 23.47468757629395 C 9.388198852539062 24.08183860778809 10.03514099121094 24.4748649597168 10.65812397003174 24.59454345703125 C 10.86162090301514 24.63363647460938 11.05989933013916 24.64044570922852 11.25264167785645 24.61508178710938 C 11.4455509185791 24.58969497680664 11.63292026519775 24.53207969665527 11.81442832946777 24.44234848022461 C 11.9960994720459 24.35253715515137 12.17190361022949 24.23055458068848 12.34151649475098 24.07650184631348 C 12.51128482818604 23.92231178283691 12.67485523223877 23.73599624633789 12.8319034576416 23.51765823364258 C 12.97079944610596 23.32455253601074 13.10400009155273 23.10637283325195 13.23071002960205 22.86506462097168 C 13.3575267791748 22.62355422973633 13.47784519195557 22.35887718200684 13.59086894989014 22.07299041748047 C 13.70398807525635 21.78686714172363 13.80980014801025 21.47950553894043 13.90750980377197 21.15287017822266 C 14.00529479980469 20.82596969604492 14.09496402740479 20.47977638244629 14.1757116317749 20.11626815795898 C 14.19665050506592 20.02201080322266 14.22389602661133 19.94091415405273 14.25651454925537 19.87292098999023 C 14.28914260864258 19.8049144744873 14.3271484375 19.7500171661377 14.36959743499756 19.70817184448242 C 14.4120569229126 19.66632080078125 14.45896339416504 19.63752746582031 14.50938606262207 19.62174224853516 C 14.55981826782227 19.60595321655273 14.61376571655273 19.60317611694336 14.67029285430908 19.61335945129395 C 14.71946334838867 19.62221717834473 14.77058601379395 19.6408805847168 14.8230447769165 19.66931343078613 C 14.87551403045654 19.69775199890137 14.92932224273682 19.7359676361084 14.98385334014893 19.78391647338867 C 15.03839588165283 19.83187866210938 15.09365844726562 19.88957786560059 15.14903163909912 19.95698165893555 C 15.2044153213501 20.02439880371094 15.25990581512451 20.10152053833008 15.31489086151123 20.18831253051758 C 15.4331226348877 20.37493324279785 15.53778171539307 20.58856201171875 15.62579441070557 20.8150691986084 C 15.71381664276123 21.04160118103027 15.78517055511475 21.28097343444824 15.83678913116455 21.5190544128418 C 15.88840293884277 21.75711631774902 15.9202766418457 21.99384689331055 15.92934989929199 22.21510314941406 C 15.93842029571533 22.43631553649902 15.92470073699951 22.64202690124512 15.88514709472656 22.8181324005127 C 15.7877779006958 23.25161361694336 15.67932987213135 23.66485595703125 15.56078052520752 24.05548477172852 C 15.44234657287598 24.44573593139648 15.31383419036865 24.81340217590332 15.1762170791626 25.1561336517334 C 15.03873920440674 25.49852180480957 14.89217662811279 25.81601333618164 14.73750019073486 26.10627746582031 C 14.58298110961914 26.3962459564209 14.4203634262085 26.65903282165527 14.25060939788818 26.89231300354004 C 14.04612159729004 27.17333602905273 13.83206748962402 27.41256713867188 13.60888385772705 27.60988235473633 C 13.38596725463867 27.80696296691895 13.1539421081543 27.96223640441895 12.91323852539062 28.07557678222656 C 12.67282104492188 28.18878746032715 12.42373657226562 28.26016426086426 12.16642475128174 28.28959846496582 C 11.90940570831299 28.31898880004883 11.6441707611084 28.3065357208252 11.37113952636719 28.25209808349609 C 10.52493572235107 28.08338165283203 9.646592140197754 27.54232025146484 8.783078193664551 26.71022415161133 C 7.9219651222229 25.88043975830078 7.074892044067383 24.76056098937988 6.288199424743652 23.43024826049805 C 5.502961158752441 22.10239410400391 4.7770676612854 20.56351661682129 4.15653133392334 18.89175033569336 C 3.536436319351196 17.2211742401123 3.020773887634277 15.41581058502197 2.655653953552246 13.5525951385498 C 2.290296792984009 11.6881685256958 2.1092369556427 9.937098503112793 2.094693899154663 8.365885734558105 C 2.080122232437134 6.791778564453125 2.232664585113525 5.396565914154053 2.53496527671814 4.2484130859375 C 2.838086605072021 3.09714150428772 3.292001008987427 2.19345498085022 3.879386425018311 1.607166886329651 C 4.468700408935547 1.018946647644043 5.192600250244141 0.7499819397926331 6.03347110748291 0.8714196681976318 Z" stroke="none" fill="#72a2ad"/>
        </g>
      </g>
    </g>
  </g>
</svg>
